<mxfile host="app.diagrams.net" modified="2020-10-22T23:49:20.560Z" agent="5.0 (Windows NT 10.0; Win64; x64) AppleWebKit/537.36 (KHTML, like Gecko) Chrome/86.0.4240.111 Safari/537.36" etag="ywQh69ZFaAMGYi9KiFp3" version="13.8.1" type="github">
  <diagram id="A_wYnvS-wCIYyP_TFe44" name="Page-1">
    <mxGraphModel dx="1948" dy="733" grid="1" gridSize="10" guides="1" tooltips="1" connect="1" arrows="1" fold="1" page="1" pageScale="1" pageWidth="827" pageHeight="1169" math="0" shadow="0">
      <root>
        <mxCell id="0" />
        <mxCell id="1" parent="0" />
        <mxCell id="9F1OHB0WLYa_Q_a-96xW-40" value="Pool" style="swimlane;html=1;childLayout=stackLayout;resizeParent=1;resizeParentMax=0;startSize=20;" vertex="1" parent="1">
          <mxGeometry x="-310" y="30" width="670" height="660" as="geometry" />
        </mxCell>
        <mxCell id="9F1OHB0WLYa_Q_a-96xW-41" value="Cliente" style="swimlane;html=1;startSize=20;" vertex="1" parent="9F1OHB0WLYa_Q_a-96xW-40">
          <mxGeometry y="20" width="220" height="640" as="geometry" />
        </mxCell>
        <mxCell id="9F1OHB0WLYa_Q_a-96xW-45" value="" style="edgeStyle=orthogonalEdgeStyle;html=1;verticalAlign=bottom;endArrow=open;endSize=8;strokeColor=#ff0000;" edge="1" source="9F1OHB0WLYa_Q_a-96xW-44" parent="9F1OHB0WLYa_Q_a-96xW-41">
          <mxGeometry relative="1" as="geometry">
            <mxPoint x="105" y="130" as="targetPoint" />
            <Array as="points">
              <mxPoint x="105" y="120" />
            </Array>
          </mxGeometry>
        </mxCell>
        <mxCell id="9F1OHB0WLYa_Q_a-96xW-44" value="" style="ellipse;html=1;shape=startState;fillColor=#000000;strokeColor=#ff0000;" vertex="1" parent="9F1OHB0WLYa_Q_a-96xW-41">
          <mxGeometry x="90" y="30" width="30" height="30" as="geometry" />
        </mxCell>
        <mxCell id="9F1OHB0WLYa_Q_a-96xW-47" value="Solicitar Pedido" style="rounded=1;whiteSpace=wrap;html=1;arcSize=40;fontColor=#000000;fillColor=#ffffc0;strokeColor=#ff0000;" vertex="1" parent="9F1OHB0WLYa_Q_a-96xW-41">
          <mxGeometry x="45" y="120" width="120" height="40" as="geometry" />
        </mxCell>
        <mxCell id="9F1OHB0WLYa_Q_a-96xW-64" value="Receber Pedido" style="rounded=1;whiteSpace=wrap;html=1;arcSize=40;fontColor=#000000;fillColor=#ffffc0;strokeColor=#ff0000;" vertex="1" parent="9F1OHB0WLYa_Q_a-96xW-41">
          <mxGeometry x="50" y="378" width="120" height="40" as="geometry" />
        </mxCell>
        <mxCell id="9F1OHB0WLYa_Q_a-96xW-65" value="" style="edgeStyle=orthogonalEdgeStyle;html=1;verticalAlign=bottom;endArrow=open;endSize=8;strokeColor=#ff0000;" edge="1" source="9F1OHB0WLYa_Q_a-96xW-64" parent="9F1OHB0WLYa_Q_a-96xW-41">
          <mxGeometry relative="1" as="geometry">
            <mxPoint x="110" y="458" as="targetPoint" />
          </mxGeometry>
        </mxCell>
        <mxCell id="9F1OHB0WLYa_Q_a-96xW-68" style="edgeStyle=orthogonalEdgeStyle;rounded=0;orthogonalLoop=1;jettySize=auto;html=1;entryX=0.5;entryY=0;entryDx=0;entryDy=0;exitX=0.625;exitY=1;exitDx=0;exitDy=0;exitPerimeter=0;" edge="1" parent="9F1OHB0WLYa_Q_a-96xW-41" source="9F1OHB0WLYa_Q_a-96xW-60" target="9F1OHB0WLYa_Q_a-96xW-64">
          <mxGeometry relative="1" as="geometry">
            <mxPoint x="240" y="348" as="sourcePoint" />
          </mxGeometry>
        </mxCell>
        <mxCell id="9F1OHB0WLYa_Q_a-96xW-60" value="" style="shape=line;html=1;strokeWidth=6;strokeColor=#ff0000;" vertex="1" parent="9F1OHB0WLYa_Q_a-96xW-41">
          <mxGeometry x="115" y="328" width="200" height="10" as="geometry" />
        </mxCell>
        <mxCell id="9F1OHB0WLYa_Q_a-96xW-42" value="Vendas" style="swimlane;html=1;startSize=20;" vertex="1" parent="9F1OHB0WLYa_Q_a-96xW-40">
          <mxGeometry x="220" y="20" width="220" height="640" as="geometry" />
        </mxCell>
        <mxCell id="9F1OHB0WLYa_Q_a-96xW-66" value="CobranÃ§a" style="rounded=1;whiteSpace=wrap;html=1;arcSize=40;fontColor=#000000;fillColor=#ffffc0;strokeColor=#ff0000;" vertex="1" parent="9F1OHB0WLYa_Q_a-96xW-42">
          <mxGeometry x="50" y="378" width="120" height="40" as="geometry" />
        </mxCell>
        <mxCell id="9F1OHB0WLYa_Q_a-96xW-49" value="Processar Pedido" style="rounded=1;whiteSpace=wrap;html=1;arcSize=40;fontColor=#000000;fillColor=#ffffc0;strokeColor=#ff0000;" vertex="1" parent="9F1OHB0WLYa_Q_a-96xW-42">
          <mxGeometry x="50" y="160" width="120" height="40" as="geometry" />
        </mxCell>
        <mxCell id="9F1OHB0WLYa_Q_a-96xW-53" value="" style="edgeStyle=orthogonalEdgeStyle;html=1;verticalAlign=bottom;endArrow=open;endSize=8;strokeColor=#ff0000;" edge="1" parent="9F1OHB0WLYa_Q_a-96xW-42">
          <mxGeometry relative="1" as="geometry">
            <mxPoint x="284.97" y="220" as="targetPoint" />
            <mxPoint x="120.0044827586207" y="200" as="sourcePoint" />
            <Array as="points">
              <mxPoint x="119.97" y="220" />
            </Array>
          </mxGeometry>
        </mxCell>
        <mxCell id="9F1OHB0WLYa_Q_a-96xW-43" value="Estoque" style="swimlane;html=1;startSize=20;" vertex="1" parent="9F1OHB0WLYa_Q_a-96xW-40">
          <mxGeometry x="440" y="20" width="230" height="640" as="geometry" />
        </mxCell>
        <mxCell id="9F1OHB0WLYa_Q_a-96xW-56" value="" style="edgeStyle=orthogonalEdgeStyle;html=1;verticalAlign=bottom;endArrow=open;endSize=8;strokeColor=#ff0000;exitX=0.5;exitY=1;exitDx=0;exitDy=0;entryX=0.5;entryY=0;entryDx=0;entryDy=0;" edge="1" parent="9F1OHB0WLYa_Q_a-96xW-43" source="9F1OHB0WLYa_Q_a-96xW-51" target="9F1OHB0WLYa_Q_a-96xW-54">
          <mxGeometry relative="1" as="geometry">
            <mxPoint x="154.97000000000025" y="270" as="targetPoint" />
            <mxPoint x="-9.995517241379275" y="250" as="sourcePoint" />
            <Array as="points" />
          </mxGeometry>
        </mxCell>
        <mxCell id="9F1OHB0WLYa_Q_a-96xW-54" value="Enviar Pedido" style="rounded=1;whiteSpace=wrap;html=1;arcSize=40;fontColor=#000000;fillColor=#ffffc0;strokeColor=#ff0000;" vertex="1" parent="9F1OHB0WLYa_Q_a-96xW-43">
          <mxGeometry x="65" y="266" width="120" height="40" as="geometry" />
        </mxCell>
        <mxCell id="9F1OHB0WLYa_Q_a-96xW-51" value="Coletar Itens&amp;nbsp;" style="rounded=1;whiteSpace=wrap;html=1;arcSize=40;fontColor=#000000;fillColor=#ffffc0;strokeColor=#ff0000;" vertex="1" parent="9F1OHB0WLYa_Q_a-96xW-43">
          <mxGeometry x="65" y="196" width="120" height="40" as="geometry" />
        </mxCell>
        <mxCell id="9F1OHB0WLYa_Q_a-96xW-48" value="" style="edgeStyle=orthogonalEdgeStyle;html=1;verticalAlign=bottom;endArrow=open;endSize=8;strokeColor=#ff0000;" edge="1" source="9F1OHB0WLYa_Q_a-96xW-47" parent="9F1OHB0WLYa_Q_a-96xW-40" target="9F1OHB0WLYa_Q_a-96xW-49">
          <mxGeometry relative="1" as="geometry">
            <mxPoint x="105" y="240" as="targetPoint" />
            <Array as="points">
              <mxPoint x="105" y="200" />
            </Array>
          </mxGeometry>
        </mxCell>
        <mxCell id="9F1OHB0WLYa_Q_a-96xW-72" style="edgeStyle=orthogonalEdgeStyle;rounded=0;orthogonalLoop=1;jettySize=auto;html=1;entryX=0.5;entryY=0;entryDx=0;entryDy=0;" edge="1" parent="9F1OHB0WLYa_Q_a-96xW-40" target="9F1OHB0WLYa_Q_a-96xW-66">
          <mxGeometry relative="1" as="geometry">
            <mxPoint x="240" y="353" as="sourcePoint" />
            <Array as="points">
              <mxPoint x="240" y="353" />
              <mxPoint x="240" y="378" />
              <mxPoint x="330" y="378" />
            </Array>
          </mxGeometry>
        </mxCell>
        <mxCell id="9F1OHB0WLYa_Q_a-96xW-74" value="" style="edgeStyle=orthogonalEdgeStyle;html=1;verticalAlign=bottom;endArrow=open;endSize=8;strokeColor=#ff0000;exitX=0;exitY=0.5;exitDx=0;exitDy=0;entryX=0.75;entryY=0.5;entryDx=0;entryDy=0;entryPerimeter=0;" edge="1" parent="9F1OHB0WLYa_Q_a-96xW-40" source="9F1OHB0WLYa_Q_a-96xW-54" target="9F1OHB0WLYa_Q_a-96xW-60">
          <mxGeometry relative="1" as="geometry">
            <mxPoint x="297.48000000000025" y="339.9999999999999" as="targetPoint" />
            <mxPoint x="132.5144827586205" y="319.9999999999999" as="sourcePoint" />
            <Array as="points">
              <mxPoint x="265" y="306" />
            </Array>
          </mxGeometry>
        </mxCell>
        <mxCell id="9F1OHB0WLYa_Q_a-96xW-75" style="edgeStyle=orthogonalEdgeStyle;rounded=0;orthogonalLoop=1;jettySize=auto;html=1;exitX=0.5;exitY=1;exitDx=0;exitDy=0;" edge="1" parent="1" source="9F1OHB0WLYa_Q_a-96xW-66">
          <mxGeometry relative="1" as="geometry">
            <mxPoint x="20.57142857142867" y="510" as="targetPoint" />
          </mxGeometry>
        </mxCell>
        <mxCell id="9F1OHB0WLYa_Q_a-96xW-76" value="" style="shape=line;html=1;strokeWidth=6;strokeColor=#ff0000;" vertex="1" parent="1">
          <mxGeometry x="-210" y="509" width="240" height="10" as="geometry" />
        </mxCell>
      </root>
    </mxGraphModel>
  </diagram>
</mxfile>
